<?xml version="1.0" encoding="utf-8"?>
<!-- Generator: Adobe Illustrator 24.0.1, SVG Export Plug-In . SVG Version: 6.00 Build 0)  -->
<svg version="1.1" id="Слой_1" xmlns="http://www.w3.org/2000/svg" xmlns:xlink="http://www.w3.org/1999/xlink" x="0px" y="0px"
	 viewBox="0 0 50 50" style="enable-background:new 0 0 50 50;" xml:space="preserve">
<style type="text/css">
	.st0{fill:url(#SVGID_1_);}
	.st1{fill:#FFFFFF;}
</style>
<linearGradient id="SVGID_1_" gradientUnits="userSpaceOnUse" x1="9.7332" y1="9.7259" x2="40.2888" y2="40.2815">
	<stop  offset="0" style="stop-color:#152A8E"/>
	<stop  offset="1" style="stop-color:#B1376C"/>
</linearGradient>
<path class="st0" d="M46.1,34.5L34.5,46.1c-5.2,5.2-13.7,5.2-18.9,0L3.9,34.5c-5.2-5.2-5.2-13.7,0-18.9L15.5,3.9
	c5.2-5.2,13.7-5.2,18.9,0l11.6,11.6C51.3,20.8,51.3,29.2,46.1,34.5z"/>
<path class="st1" d="M41.2,28.7c0,1.8-0.5,3.2-1.6,4.3c-1.1,1.1-2.4,1.7-3.9,1.7c-2.2,0-4.1-1.1-5.9-3.4c-1.7-2.1-2.6-3.5-2.8-4.2
	c-0.1,3.1-0.4,5.3-1,6.7c-0.9,1.9-2.6,2.8-5,2.8c-0.8,0-1.8-0.1-2.9-0.3c-6.2-1.2-9.3-3.9-9.3-7.9c0-2.9,1.6-6.2,4.7-10
	c-0.5,0.2-1.1,0.3-1.8,0.3c-0.9,0-1.8-0.2-2.7-0.5l0.7-3.6c1,0.7,2.4,1.2,4.1,1.6c1.7,0.4,3.4,0.6,5.3,0.6c0.1,0,0.2,0,0.4,0
	c0.2,0,0.3,0,0.4,0c-2.6,4.7-3.9,8.7-3.9,12c0,1.3,0.3,2.5,0.9,3.4c0.5,0.8,1.1,1.3,1.7,1.3c1,0,1.8-1.4,2.5-4.3c0.7-3,1-6.1,1-9.3
	c0-2.1-0.2-3.8-0.5-5.1c2-0.2,4.8-0.6,8.6-1.3c0.1,0.4,0.2,0.9,0.4,1.6c-0.7,0.2-1.6,0.4-2.7,0.7c-0.4,0.6-0.7,2-0.8,4.3
	c0.4,2.4,1.1,4.5,2.1,6.4c1.1,1.9,2.1,2.9,3.1,2.9c0.8,0,1.2-0.7,1.2-2.2c0-1.4-0.3-3.3-1-5.5c-0.6-2.1-1.2-3.6-1.8-4.5
	c2.7,0.1,5,0.1,7,0.1c0.9,0,1.9,0,3-0.1c-0.3,0.6-0.6,1.1-0.9,1.5l-3.8,0.6C39.6,22.5,41.2,25.6,41.2,28.7z"/>
</svg>
