<?xml version="1.0" standalone="no"?>
<!DOCTYPE svg PUBLIC "-//W3C//DTD SVG 20010904//EN"
 "http://www.w3.org/TR/2001/REC-SVG-20010904/DTD/svg10.dtd">
<svg version="1.0" xmlns="http://www.w3.org/2000/svg"
 width="512.000000pt" height="512.000000pt" viewBox="0 0 512.000000 512.000000"
 preserveAspectRatio="xMidYMid meet">
<metadata>
Created by potrace 1.14, written by Peter Selinger 2001-2017
</metadata>
<g transform="translate(0.000000,512.000000) scale(0.100000,-0.100000)"
fill="#000000" stroke="none">
<path d="M2370 5110 c-25 -5 -61 -11 -80 -15 -153 -27 -329 -96 -453 -177 -32
-21 -61 -38 -63 -38 -32 0 -1366 -1331 -1488 -1485 -55 -69 -134 -195 -128
-203 2 -3 0 -8 -5 -11 -14 -10 -69 -140 -92 -216 -43 -145 -55 -225 -55 -385
-1 -216 16 -331 74 -495 21 -58 89 -205 100 -215 3 -3 21 -31 40 -62 19 -32
38 -58 42 -58 4 0 8 -5 8 -10 0 -20 61 -83 714 -733 625 -621 766 -753 881
-818 120 -68 292 -137 389 -155 140 -26 187 -31 306 -32 324 0 612 99 865 297
78 61 1338 1327 1399 1406 153 196 240 394 284 650 4 22 7 119 6 215 -1 143
-5 191 -22 265 -12 50 -24 100 -27 111 -11 48 -59 164 -103 249 -87 168 -152
240 -799 888 -340 340 -641 640 -669 667 -177 169 -414 291 -669 346 -89 18
-379 28 -455 14z m744 -1456 c9 -42 16 -77 14 -78 -2 -2 -61 -18 -133 -36 -71
-19 -135 -39 -142 -45 -11 -12 -55 -146 -52 -162 1 -4 0 -10 -1 -13 -4 -12
-10 -50 -16 -115 -11 -114 -11 -148 -3 -180 4 -16 10 -43 13 -60 6 -36 13 -71
20 -93 3 -9 7 -28 10 -42 3 -14 16 -59 29 -100 72 -220 180 -421 284 -528 61
-63 115 -92 171 -92 54 0 95 36 111 98 12 41 15 211 6 267 -3 17 -8 52 -11 79
-3 28 -7 53 -9 57 -3 4 -7 24 -11 45 -3 22 -12 64 -21 94 -8 30 -16 60 -17 65
-1 6 -11 37 -21 70 -11 33 -19 62 -20 65 0 3 -13 42 -29 88 -15 46 -29 93 -32
105 -2 12 -8 23 -14 25 -5 2 -10 10 -10 18 0 15 -53 129 -70 149 -15 18 2 22
90 19 132 -5 793 -6 848 -1 29 3 54 2 57 -2 2 -4 -14 -39 -36 -77 -30 -51 -46
-70 -62 -71 -12 -1 -33 -4 -47 -6 -14 -3 -43 -8 -65 -12 -22 -3 -65 -10 -95
-15 -30 -5 -75 -12 -100 -15 -24 -4 -48 -9 -51 -11 -4 -2 39 -50 95 -107 153
-155 218 -239 294 -378 78 -143 124 -292 126 -416 1 -18 5 -33 10 -33 5 0 4
-6 -1 -12 -13 -16 -13 -48 0 -48 6 0 6 -5 0 -12 -5 -7 -10 -29 -12 -48 -9
-160 -94 -312 -231 -412 -199 -145 -465 -144 -682 3 -102 70 -252 231 -380
410 -73 102 -88 125 -88 135 0 6 -9 19 -19 28 -11 10 -23 31 -26 47 -9 42 -21
36 -23 -12 -1 -22 -5 -46 -9 -51 -4 -7 -1 -8 7 -3 9 6 11 4 5 -4 -4 -7 -9 -38
-10 -69 -5 -77 -14 -172 -20 -202 -3 -14 -8 -43 -11 -65 -41 -285 -165 -442
-395 -501 -68 -17 -236 -24 -314 -13 -27 4 -68 10 -90 13 -125 16 -318 67
-460 121 -92 35 -231 109 -260 139 -9 9 -20 16 -24 16 -11 0 -121 108 -153
150 -36 48 -82 143 -103 215 -18 61 -29 279 -15 300 4 6 10 30 14 55 19 125
107 336 201 481 25 38 45 73 45 78 0 4 9 16 20 26 11 10 20 24 20 31 0 7 3 14
8 16 4 2 28 32 54 68 26 36 53 72 60 80 7 8 22 25 32 39 l20 24 -25 -6 c-13
-3 -35 -8 -49 -12 -45 -11 -194 -7 -260 9 -94 22 -125 32 -124 42 1 5 9 46 18
92 9 45 14 87 11 92 -3 6 -2 10 3 10 5 0 9 6 9 13 0 6 3 26 7 42 3 17 9 46 12
65 3 19 7 37 9 39 2 2 16 -5 32 -16 50 -34 136 -70 238 -101 135 -42 188 -56
198 -54 5 2 25 -2 45 -7 20 -6 57 -12 82 -15 25 -3 55 -8 68 -10 38 -8 201
-18 290 -18 45 0 82 -1 82 -2 0 -2 -33 -68 -73 -147 -40 -79 -82 -166 -94
-194 -12 -27 -33 -76 -47 -107 -14 -32 -22 -58 -19 -58 3 0 1 -6 -5 -12 -8
-11 -66 -173 -77 -218 -3 -8 -11 -41 -20 -74 -9 -32 -18 -70 -21 -85 -2 -14
-9 -51 -14 -81 -52 -289 -8 -531 120 -660 57 -57 81 -70 128 -70 48 0 100 42
140 113 26 45 85 202 98 258 2 10 6 28 9 40 2 11 6 28 9 37 6 20 10 41 35 175
10 53 17 97 14 97 -2 0 -1 5 3 12 4 6 9 29 11 50 6 68 12 123 13 123 2 0 6 57
16 205 13 203 8 481 -11 625 -9 74 -18 122 -26 143 -11 28 9 37 101 47 36 3
79 9 95 11 17 3 46 7 65 9 19 3 51 7 70 10 19 3 49 8 65 10 118 17 242 37 255
42 8 3 33 7 55 9 22 2 53 7 70 12 16 5 46 9 65 10 l36 3 18 -77z"/>
</g>
</svg>
