<svg version="1.1" xmlns="http://www.w3.org/2000/svg" xmlns:xlink="http://www.w3.org/1999/xlink" viewBox="0 0 50 36">
<style type="text/css">
	.st0{fill:transparent;}
	.st0{animation: anim 1s ease-in infinite;animation-direction: alternate-reverse;}
	@keyframes anim {
    from {
      fill: transparent;
    }
    to {
      fill: #fff;
    }
	}
</style>
<path class="st0" d="M50,23.7c0,2.8-0.8,5-2.5,6.7c-1.7,1.7-3.7,2.6-6,2.6c-3.4,0-6.3-1.7-9.1-5.3c-2.6-3.3-4-5.5-4.3-6.5
	c-0.2,4.8-0.6,8.3-1.5,10.4c-1.4,3-4,4.4-7.7,4.4c-1.2,0-2.8-0.2-4.5-0.5C4.8,33.7,0,29.5,0,23.2c0-4.5,2.5-9.7,7.3-15.6
	C6.5,7.9,5.6,8.1,4.5,8.1c-1.4,0-2.8-0.3-4.2-0.8l1.1-5.6c1.5,1.1,3.7,1.9,6.3,2.5c2.6,0.6,5.2,0.9,8.2,0.9c0.2,0,0.3,0,0.6,0
	c0.3,0,0.5,0,0.6,0c-4,7.3-6,13.6-6,18.7c0,2,0.5,3.9,1.4,5.3c0.8,1.2,1.7,2,2.6,2c1.5,0,2.8-2.2,3.9-6.7c1.1-4.7,1.5-9.5,1.5-14.5
	c0-3.3-0.3-5.9-0.8-7.9c3.1-0.3,7.4-0.9,13.3-2c0.2,0.6,0.3,1.4,0.6,2.5c-1.1,0.3-2.5,0.6-4.2,1.1c-0.6,0.9-1.1,3.1-1.2,6.7
	c0.6,3.7,1.7,7,3.2,10c1.7,3,3.2,4.5,4.8,4.5c1.2,0,1.9-1.1,1.9-3.4c0-2.2-0.5-5.1-1.5-8.6c-0.9-3.3-1.9-5.6-2.8-7
	c4.2,0.2,7.7,0.2,10.8,0.2c1.4,0,2.9,0,4.6-0.2c-0.5,0.9-0.9,1.7-1.4,2.3L42,9C47.5,14,50,18.9,50,23.7z"/>
</svg>
